<?xml version="1.0" encoding="UTF-8"?>
<svg version="1.1" xmlns="http://www.w3.org/2000/svg" width="512" height="512">
<path d="M0 0 C0.66 0 1.32 0 2 0 C7.61 18.15 13.22 36.3 19 55 C23.58777344 55.00257813 28.17554688 55.00515625 32.90234375 55.0078125 C35.82366711 55.02277525 38.74477144 55.03949696 41.66601562 55.0625 C46.29416902 55.09877813 50.9217329 55.1288392 55.55004883 55.12011719 C59.28526822 55.11348813 63.0193006 55.136208 66.75427437 55.17855453 C68.17303804 55.18962289 69.59192303 55.19044283 71.0106945 55.18042374 C79.92322127 55.12559631 86.31380423 55.75357183 93 62 C97.58457499 67.36730731 97.72630365 72.59136441 97.51171875 79.546875 C96.7439892 84.72758431 94.82192918 88.42488817 91 92 C84.75076779 96.55407483 79.5220501 96.53273196 71.94140625 96.390625 C70.79711655 96.38496521 69.65282684 96.37930542 68.47386169 96.37347412 C64.83630699 96.35116956 61.1997546 96.30098168 57.5625 96.25 C55.08920698 96.22992746 52.61589845 96.21167802 50.14257812 96.1953125 C44.09471287 96.15132407 38.04742807 96.08447025 32 96 C35.1088475 108.07516214 38.64196 120.00347912 42.25 131.9375 C44.1475 138.228125 46.045 144.51875 48 151 C66.81 151 85.62 151 105 151 C103.02 149.35 101.04 147.7 99 146 C95.75687043 141.33214298 96.41766905 135.43023607 97 130 C99.30526893 125.03480537 102.24073974 122.60910299 107 120 C109.98030847 119.48230962 112.88103031 119.53152946 115.8984375 119.609375 C116.73339752 119.61503479 117.56835754 119.62069458 118.42861938 119.62652588 C121.07801266 119.64879777 123.72602016 119.69897477 126.375 119.75 C128.17836579 119.77007698 129.98175292 119.78832565 131.78515625 119.8046875 C136.19063269 119.84863214 140.59508194 119.91759399 145 120 C144.97905273 118.79053711 144.95810547 117.58107422 144.93652344 116.33496094 C144.8634516 111.79504503 144.81795883 107.25517976 144.78027344 102.71484375 C144.76030961 100.75967634 144.73312864 98.80456745 144.69824219 96.84960938 C144.38466835 78.8098911 146.64174781 65.90691923 159.3125 52.25 C169.87104681 42.25708962 181.41827923 39.48560219 195.53027344 39.58032227 C209.65266239 39.99110257 220.72865726 45.837119 230.40625 56.0625 C238.28245894 65.6374991 241.51227336 75.8831469 241.29296875 88.1640625 C241.28872391 89.08214691 241.28447906 90.00023132 241.28010559 90.94613647 C241.26349497 93.83940678 241.22587775 96.7319451 241.1875 99.625 C241.17243032 101.60285443 241.15874595 103.58071992 241.14648438 105.55859375 C241.11621844 110.37289537 241.05746582 115.18564163 241 120 C252.22 119.67 263.44 119.34 275 119 C276.65 115.7 278.3 112.4 280 109 C287.58861949 98.48293366 298.09397168 90.3656386 311 88 C327.07147745 86.43664002 340.25375915 88.53699882 353 99 C362.04082086 106.62089075 368.10765156 116.98369843 369.28283501 128.85776901 C369.39432941 132.01777305 369.41693783 135.16568545 369.40405273 138.32763672 C369.41434761 140.11507797 369.41434761 140.11507797 369.42485046 141.93862915 C369.43992023 145.1785238 369.44163877 148.41805365 369.43590808 151.65796804 C369.43279631 154.37630722 369.4389307 157.09459548 369.44494683 159.81292737 C369.45894726 166.23323898 369.45746879 172.65341742 369.44604492 179.07373047 C369.43457242 185.66649409 369.44863468 192.25885049 369.4754414 198.85156047 C369.4976943 204.54025416 369.50421421 210.22882092 369.49836498 215.91755497 C369.49501645 219.30266847 369.49726821 222.68752119 369.51461601 226.0725975 C369.52958972 229.85322598 369.51880043 233.63297224 369.50170898 237.41357422 C369.51137695 238.51421204 369.52104492 239.61484985 369.53100586 240.74884033 C369.39875783 254.80721931 364.1487955 265.55233009 354.6875 275.75 C346.98919139 283.00351745 339.4811123 285.37972192 329 288 C329 301.2 329 314.4 329 328 C332.12984375 327.95359375 335.2596875 327.9071875 338.484375 327.859375 C341.51593402 327.82817941 344.54747516 327.80389159 347.57910156 327.78027344 C349.68595382 327.76015874 351.79275025 327.73286333 353.89941406 327.69824219 C356.92787447 327.64971832 359.95559678 327.62702984 362.984375 327.609375 C364.39707672 327.57840729 364.39707672 327.57840729 365.83831787 327.54681396 C372.37832075 327.54457019 372.37832075 327.54457019 375.59277344 329.89941406 C377.1095314 332.16349899 377.54219507 333.29951563 377.5 336 C377.5103125 336.66 377.520625 337.32 377.53125 338 C376.73278915 341.00597025 375.45432011 342.09606309 373 344 C370.24853809 344.39207261 367.89762761 344.53790488 365.14758301 344.50336456 C363.94708895 344.51208521 363.94708895 344.51208521 362.72234249 344.52098203 C360.02357769 344.53565335 357.32571225 344.52166387 354.62695312 344.50793457 C352.67944115 344.51254067 350.73193265 344.51889162 348.78443146 344.52684355 C343.4195545 344.54359995 338.05496077 344.53526187 332.69008255 344.52289867 C326.90949802 344.51387626 321.1289634 344.52780392 315.34838867 344.53881836 C304.01901483 344.55663826 292.68974678 344.55274815 281.36036873 344.5411678 C272.15568292 344.53214738 262.95102684 344.53090343 253.74633789 344.53526306 C252.43806424 344.53587599 251.12979058 344.53648893 249.78187227 344.53712043 C247.12443732 344.53839929 244.46700238 344.53969614 241.80956745 344.5410108 C217.58127352 344.55250327 193.35303314 344.54058499 169.12474835 344.51964041 C146.99719711 344.50065732 124.86973794 344.50235581 102.7421875 344.52148438 C77.89385292 344.54289306 53.04557 344.55132803 28.19722748 344.53903532 C25.54937236 344.53776108 22.90151724 344.53650359 20.25366211 344.53526306 C18.29928624 344.53433741 18.29928624 344.53433741 16.30542803 344.53339306 C7.1079844 344.52993417 -2.08942665 344.53578009 -11.28686523 344.54518127 C-22.49001476 344.55638049 -33.69305212 344.55340502 -44.89618874 344.5320583 C-50.61612753 344.5215199 -56.33587909 344.51747348 -62.05581665 344.53065491 C-67.28652667 344.54252693 -72.51687496 344.53610231 -77.74755192 344.5147447 C-79.6451993 344.51025654 -81.5428769 344.51259412 -83.44050503 344.52224785 C-86.00997231 344.53432213 -88.57818261 344.52202924 -91.14758301 344.50336456 C-92.26598241 344.51741156 -92.26598241 344.51741156 -93.40697575 344.53174233 C-96.87291597 344.4810392 -98.68147485 344.24709563 -101.45757294 342.09353971 C-103.13039059 339.82302056 -103.54351767 338.78513085 -103.5 336 C-103.5103125 335.34 -103.520625 334.68 -103.53125 334 C-102.7122834 330.91683162 -101.5781965 329.91026296 -99 328 C-95.79177908 327.4101979 -92.61965136 327.49508011 -89.36621094 327.54589844 C-88.39026978 327.54531433 -87.41432861 327.54473022 -86.40881348 327.54412842 C-83.1836386 327.54691469 -79.95938839 327.57803314 -76.734375 327.609375 C-74.49807236 327.61683544 -72.26176318 327.6225293 -70.02545166 327.62652588 C-64.13983101 327.64179762 -58.25460526 327.68109318 -52.36914062 327.7253418 C-46.3633356 327.766261 -40.35746675 327.78452976 -34.3515625 327.8046875 C-22.56750692 327.84758566 -10.78384808 327.91794857 1 328 C1 314.8 1 301.6 1 288 C-25.4 288 -51.8 288 -79 288 C-78.13873234 283.69366172 -77.10983972 280.7399733 -75.27734375 276.82421875 C-74.73916016 275.66728516 -74.20097656 274.51035156 -73.64648438 273.31835938 C-73.07694064 272.10801751 -72.50727769 270.89773174 -71.9375 269.6875 C-71.36343439 268.45791463 -70.7898615 267.22809909 -70.21679688 265.99804688 C-68.81602767 262.99639857 -67.41027491 259.99719095 -66 257 C-67.05058594 256.99742187 -68.10117188 256.99484375 -69.18359375 256.9921875 C-77.80780541 256.81756673 -84.58281106 256.43187358 -91 250 C-95.58457499 244.63269269 -95.72630365 239.40863559 -95.51171875 232.453125 C-94.7439892 227.27241569 -92.82192918 223.57511183 -89 220 C-83.59049578 216.33695866 -79.90598567 215.43173977 -73.44140625 215.609375 C-72.25767677 215.61786469 -72.25767677 215.61786469 -71.05003357 215.62652588 C-68.55354626 215.64874314 -66.05854625 215.69890781 -63.5625 215.75 C-61.86004691 215.77008412 -60.15757111 215.78833153 -58.45507812 215.8046875 C-54.30282086 215.84855928 -50.15166172 215.91748092 -46 216 C-45.43345703 214.14568359 -45.43345703 214.14568359 -44.85546875 212.25390625 C-42.85008622 206.23775866 -40.0940565 200.62623167 -37.3125 194.9375 C-36.80138672 193.88111328 -36.29027344 192.82472656 -35.76367188 191.73632812 C-34.51398076 189.1551904 -33.25766873 186.57726003 -32 184 C-39.59 184 -47.18 184 -55 184 C-54.32817149 179.29720045 -53.68272993 175.49691778 -52.32592773 171.06469727 C-51.98565048 169.94406387 -51.64537323 168.82343048 -51.29478455 167.6688385 C-50.92809158 166.48003586 -50.56139862 165.29123322 -50.18359375 164.06640625 C-49.80767593 162.83333237 -49.43175812 161.60025848 -49.04444885 160.32981873 C-48.05112606 157.07176031 -47.05162813 153.81562917 -46.05078125 150.55987549 C-45.02812543 147.22922145 -44.01139156 143.89676105 -42.99414062 140.56445312 C-41.00184802 134.04120045 -39.00301832 127.51996699 -37 121 C-38.18029785 120.9906543 -39.3605957 120.98130859 -40.57666016 120.97167969 C-44.97156998 120.93169352 -49.36578613 120.86591085 -53.76025391 120.79248047 C-55.65925154 120.7643208 -57.5583653 120.74308142 -59.45751953 120.72900391 C-62.19363638 120.70750482 -64.92836452 120.66081992 -67.6640625 120.609375 C-68.93003769 120.60753204 -68.93003769 120.60753204 -70.22158813 120.60565186 C-75.61718188 120.47272235 -78.70191624 119.54941697 -83 116 C-86.62833663 112.18069828 -87.31000458 109.11720994 -87.5 104 C-87.31000458 98.88279006 -86.62833663 95.81930172 -83 92 C-77.42079596 87.04478589 -71.85591166 87.34368672 -64.625 87.25 C-63.50738281 87.22035156 -62.38976563 87.19070312 -61.23828125 87.16015625 C-58.4921161 87.08974176 -55.74678596 87.03690377 -53 87 C-53.32162109 86.40469482 -53.64324219 85.80938965 -53.97460938 85.19604492 C-56.29400488 80.22867289 -55.65952291 74.3170387 -55 69 C-52.20644907 61.93162024 -48.72916409 59.84523663 -42 56 C-29.625 55.505 -29.625 55.505 -17 55 C-11.39 36.85 -5.78 18.7 0 0 Z M241 152 C241 173.12 241 194.24 241 216 C251.56 216 262.12 216 273 216 C273 194.88 273 173.76 273 152 C262.44 152 251.88 152 241 152 Z M81 232 C80.67 235.63 80.34 239.26 80 243 C76.89161957 249.59353425 73.42244528 252.68518953 67 256 C71.37197439 266.80910252 76.20960396 277.35467546 81 288 C59.88 288 38.76 288 17 288 C17 301.2 17 314.4 17 328 C72.44 328 127.88 328 185 328 C185 314.8 185 301.6 185 288 C179.72 286.02 174.44 284.04 169 282 C157.46588799 274.31059199 149.76087253 264.73008484 146.5 251.125 C145.3604324 246.49509963 144.10420347 244.63089966 140 242 C137.73868742 238.60803113 137.72420184 236.34521103 137 232 C118.52 232 100.04 232 81 232 Z M241 248 C240.154375 250.454375 239.30875 252.90875 238.4375 255.4375 C233.66602553 268.51389783 225.34769522 277.73971622 212.78515625 283.859375 C208.93197153 285.43739735 204.95012257 286.68329248 201 288 C201 301.2 201 314.4 201 328 C237.96 328 274.92 328 313 328 C313 314.8 313 301.6 313 288 C307.72 286.02 302.44 284.04 297 282 C283.78006813 273.18671209 277.961197 262.88359101 273 248 C262.44 248 251.88 248 241 248 Z " fill="#E9E9E7" transform="translate(119,152)"/>
<path d="M0 0 C12.08553548 8.0208935 20.0927812 18.12663428 23.30078125 32.421875 C23.70795721 36.53598678 23.72167169 40.61760676 23.70483398 44.74951172 C23.71512886 46.53695297 23.71512886 46.53695297 23.72563171 48.36050415 C23.74070148 51.6003988 23.74242002 54.83992865 23.73668933 58.07984304 C23.73357756 60.79818222 23.73971195 63.51647048 23.74572808 66.23480237 C23.75972851 72.65511398 23.75825004 79.07529242 23.74682617 85.49560547 C23.73535367 92.08836909 23.74941593 98.68072549 23.77622265 105.27343547 C23.79847555 110.96212916 23.80499546 116.65069592 23.79914623 122.33942997 C23.7957977 125.72454347 23.79804946 129.10939619 23.81539726 132.4944725 C23.83037097 136.27510098 23.81958168 140.05484724 23.80249023 143.83544922 C23.8121582 144.93608704 23.82182617 146.03672485 23.83178711 147.17071533 C23.69953908 161.22909431 18.44957675 171.97420509 8.98828125 182.171875 C1.28997264 189.42539245 -6.21810645 191.80159692 -16.69921875 194.421875 C-16.69921875 207.621875 -16.69921875 220.821875 -16.69921875 234.421875 C-13.569375 234.37546875 -10.43953125 234.3290625 -7.21484375 234.28125 C-4.18328473 234.25005441 -1.15174359 234.22576659 1.87988281 234.20214844 C3.98673507 234.18203374 6.0935315 234.15473833 8.20019531 234.12011719 C11.22865572 234.07159332 14.25637803 234.04890484 17.28515625 234.03125 C18.69785797 234.00028229 18.69785797 234.00028229 20.13909912 233.96868896 C26.679102 233.96644519 26.679102 233.96644519 29.89355469 236.32128906 C31.41031265 238.58537399 31.84297632 239.72139063 31.80078125 242.421875 C31.81625 243.411875 31.81625 243.411875 31.83203125 244.421875 C31.0335704 247.42784525 29.75510136 248.51793809 27.30078125 250.421875 C24.54931934 250.81394761 22.19840886 250.95977988 19.44836426 250.92523956 C18.2478702 250.93396021 18.2478702 250.93396021 17.02312374 250.94285703 C14.32435894 250.95752835 11.6264935 250.94353887 8.92773438 250.92980957 C6.9802224 250.93441567 5.0327139 250.94076662 3.08521271 250.94871855 C-2.27966425 250.96547495 -7.64425798 250.95713687 -13.0091362 250.94477367 C-18.78972073 250.93575126 -24.57025535 250.94967892 -30.35083008 250.96069336 C-41.68020392 250.97851326 -53.00947197 250.97462315 -64.33885002 250.9630428 C-73.54353583 250.95402238 -82.74819191 250.95277843 -91.95288086 250.95713806 C-93.26115451 250.95775099 -94.56942817 250.95836393 -95.91734648 250.95899543 C-98.57478143 250.96027429 -101.23221637 250.96157114 -103.8896513 250.9628858 C-128.11794523 250.97437827 -152.34618561 250.96245999 -176.5744704 250.94151541 C-198.70202164 250.92253232 -220.82948081 250.92423081 -242.95703125 250.94335938 C-267.80536583 250.96476806 -292.65364875 250.97320303 -317.50199127 250.96091032 C-320.14984639 250.95963608 -322.79770151 250.95837859 -325.44555664 250.95713806 C-327.39993251 250.95621241 -327.39993251 250.95621241 -329.39379072 250.95526806 C-338.59123435 250.95180917 -347.7886454 250.95765509 -356.98608398 250.96705627 C-368.18923351 250.97825549 -379.39227087 250.97528002 -390.59540749 250.9539333 C-396.31534628 250.9433949 -402.03509784 250.93934848 -407.7550354 250.95252991 C-412.98574542 250.96440193 -418.21609371 250.95797731 -423.44677067 250.9366197 C-425.34441805 250.93213154 -427.24209565 250.93446912 -429.13972378 250.94412285 C-431.70919106 250.95619713 -434.27740136 250.94390424 -436.84680176 250.92523956 C-437.96520116 250.93928656 -437.96520116 250.93928656 -439.1061945 250.95361733 C-442.57213472 250.9029142 -444.3806936 250.66897063 -447.15679169 248.51541471 C-448.82960934 246.24489556 -449.24273642 245.20700585 -449.19921875 242.421875 C-449.2146875 241.431875 -449.2146875 241.431875 -449.23046875 240.421875 C-448.41150215 237.33870662 -447.27741525 236.33213796 -444.69921875 234.421875 C-441.49099783 233.8320729 -438.31887011 233.91695511 -435.06542969 233.96777344 C-434.08948853 233.96718933 -433.11354736 233.96660522 -432.10803223 233.96600342 C-428.88285735 233.96878969 -425.65860714 233.99990814 -422.43359375 234.03125 C-420.19729111 234.03871044 -417.96098193 234.0444043 -415.72467041 234.04840088 C-409.83904976 234.06367262 -403.95382401 234.10296818 -398.06835938 234.1472168 C-392.06255435 234.188136 -386.0566855 234.20640476 -380.05078125 234.2265625 C-368.26672567 234.26946066 -356.48306683 234.33982357 -344.69921875 234.421875 C-344.69921875 221.221875 -344.69921875 208.021875 -344.69921875 194.421875 C-371.09921875 194.421875 -397.49921875 194.421875 -424.69921875 194.421875 C-423.84229012 190.13723185 -422.824503 187.18159093 -421.01171875 183.28125 C-420.47804688 182.12882813 -419.944375 180.97640625 -419.39453125 179.7890625 C-418.55535156 177.99855469 -418.55535156 177.99855469 -417.69921875 176.171875 C-417.13366863 174.95072727 -416.56855994 173.729375 -416.00390625 172.5078125 C-411.84542411 163.56808036 -411.84542411 163.56808036 -410.69921875 162.421875 C-408.99096187 162.32565464 -407.27869761 162.29999872 -405.56773376 162.30162048 C-404.45569077 162.30024582 -403.34364777 162.29887115 -402.19790649 162.29745483 C-400.96720428 162.30105011 -399.73650208 162.30464539 -398.46850586 162.30834961 C-397.18088852 162.30820358 -395.89327118 162.30805756 -394.56663513 162.3079071 C-391.02547115 162.30761914 -387.48434076 162.31351564 -383.94318461 162.32048106 C-380.24626887 162.32671483 -376.54935244 162.32731842 -372.85243225 162.32850647 C-365.84717976 162.33161972 -358.8419428 162.33983301 -351.83669716 162.34985596 C-343.86342999 162.3610173 -335.8901621 162.3665276 -327.91688907 162.37155139 C-311.51098986 162.38201563 -295.10510628 162.39961495 -278.69921875 162.421875 C-277.43799901 164.93579784 -276.1777248 167.45018754 -274.91796875 169.96484375 C-274.56573242 170.666698 -274.21349609 171.36855225 -273.85058594 172.0916748 C-264.69921875 190.36805156 -264.69921875 190.36805156 -264.69921875 194.421875 C-285.81921875 194.421875 -306.93921875 194.421875 -328.69921875 194.421875 C-328.69921875 207.621875 -328.69921875 220.821875 -328.69921875 234.421875 C-273.25921875 234.421875 -217.81921875 234.421875 -160.69921875 234.421875 C-160.69921875 221.221875 -160.69921875 208.021875 -160.69921875 194.421875 C-164.65921875 193.431875 -168.61921875 192.441875 -172.69921875 191.421875 C-184.67554985 185.81683853 -193.9347896 175.9840746 -198.76953125 163.703125 C-201.08546158 156.60928436 -201.08546158 156.60928436 -199.69921875 152.421875 C-199.03921875 152.751875 -198.37921875 153.081875 -197.69921875 153.421875 C-194.77080329 153.54473655 -191.86465477 153.60764644 -188.93505859 153.62719727 C-187.57399742 153.64204666 -187.57399742 153.64204666 -186.18544006 153.65719604 C-183.17703895 153.68886109 -180.16862202 153.71358824 -177.16015625 153.73828125 C-175.07792747 153.75884646 -172.99570291 153.77984281 -170.91348267 153.80125427 C-165.4258973 153.8565197 -159.93827399 153.90590924 -154.45062256 153.95410156 C-148.85376599 154.00428397 -143.25696471 154.05998703 -137.66015625 154.11523438 C-126.67322429 154.22287062 -115.68624438 154.32430343 -104.69921875 154.421875 C-105.16284241 156.35421018 -105.63170099 158.28528989 -106.1027832 160.21582031 C-106.36331985 161.29132141 -106.62385651 162.36682251 -106.89228821 163.47491455 C-109.79529996 174.07689374 -118.44421231 182.8559068 -127.44921875 188.734375 C-132.69921875 191.421875 -132.69921875 191.421875 -144.69921875 194.421875 C-144.69921875 207.621875 -144.69921875 220.821875 -144.69921875 234.421875 C-107.73921875 234.421875 -70.77921875 234.421875 -32.69921875 234.421875 C-32.69921875 221.221875 -32.69921875 208.021875 -32.69921875 194.421875 C-36.65921875 193.431875 -40.61921875 192.441875 -44.69921875 191.421875 C-55.75175226 186.24918455 -64.52183237 177.43378118 -69.69921875 166.421875 C-70.31219244 164.32834913 -70.86845359 162.21739116 -71.3671875 160.09375 C-71.62137451 159.02737305 -71.87556152 157.96099609 -72.13745117 156.86230469 C-72.32283447 156.05696289 -72.50821777 155.25162109 -72.69921875 154.421875 C-71.39774902 154.40729248 -70.0962793 154.39270996 -68.75537109 154.37768555 C-63.91329883 154.31958566 -59.0716859 154.24235309 -54.22998047 154.15942383 C-52.13695751 154.12622951 -50.04384622 154.09818055 -47.95068359 154.07543945 C-44.93679263 154.04179269 -41.92370712 153.98947107 -38.91015625 153.93359375 C-37.97867767 153.92720383 -37.0471991 153.9208139 -36.0874939 153.91423035 C-30.89429914 153.79747895 -27.18099535 153.33332719 -22.69921875 150.421875 C-18.25339954 145.49542668 -17.34834893 142.4704872 -17.4140625 135.96484375 C-17.93495131 131.31965728 -20.35811088 128.60042434 -23.76171875 125.609375 C-26.87924127 123.69863539 -29.50478534 123.28823899 -33.07885742 123.21655273 C-33.97181519 123.19637085 -34.86477295 123.17618896 -35.78479004 123.15539551 C-36.7194812 123.13891968 -37.65417236 123.12244385 -38.6171875 123.10546875 C-39.91009705 123.07749207 -39.91009705 123.07749207 -41.22912598 123.0489502 C-44.44821952 122.98066339 -47.6674814 122.92050772 -50.88671875 122.859375 C-58.08484375 122.715 -65.28296875 122.570625 -72.69921875 122.421875 C-72.69921875 101.301875 -72.69921875 80.181875 -72.69921875 58.421875 C-62.79921875 57.926875 -62.79921875 57.926875 -52.69921875 57.421875 C-47.08783027 54.61618076 -44.43567923 52.89479595 -41.69921875 47.421875 C-41.14943806 42.4107592 -41.13767362 38.52491007 -43.44921875 33.984375 C-46.75465675 30.21984839 -49.5412581 27.74722658 -54.69213867 27.21655273 C-55.79972534 27.16156616 -55.79972534 27.16156616 -56.9296875 27.10546875 C-58.13334961 27.04262695 -58.13334961 27.04262695 -59.36132812 26.97851562 C-60.61139648 26.91954102 -60.61139648 26.91954102 -61.88671875 26.859375 C-62.73169922 26.81619141 -63.57667969 26.77300781 -64.44726562 26.72851562 C-66.53106308 26.62255982 -68.61511978 26.5217248 -70.69921875 26.421875 C-66.06112644 13.20192326 -56.91378675 3.52518552 -44.25390625 -2.5703125 C-30.26218335 -8.089983 -13.07329855 -7.64343359 0 0 Z " fill="#027D2A" transform="translate(464.69921875,245.578125)"/>
<path d="M0 0 C10.42940986 7.25047562 18.55453775 15.48759826 24.22314453 26.91577148 C24.58022491 27.63433823 24.9373053 28.35290497 25.3052063 29.09324646 C25.71100418 29.91333946 25.71100418 29.91333946 26.125 30.75 C27.23920319 30.75364563 28.35340637 30.75729126 29.50137329 30.76104736 C40.00700602 30.79800519 50.51234584 30.85578665 61.01775551 30.93390274 C66.41858757 30.97339441 71.81925616 31.0055747 77.22021484 31.02099609 C82.43347833 31.03615139 87.64629248 31.07057729 92.85935593 31.11830902 C94.84719307 31.13313438 96.83509436 31.14104168 98.8229866 31.14188385 C101.60985341 31.14425176 104.39547669 31.17131723 107.18212891 31.20410156 C108.00212372 31.1990712 108.82211853 31.19404083 109.66696167 31.18885803 C114.94647195 31.28480935 117.91237694 32.29770742 122.125 35.75 C125.75333663 39.56930172 126.43500458 42.63279006 126.625 47.75 C126.43500458 52.86720994 125.75333663 55.93069828 122.125 59.75 C116.51984538 64.75209025 110.99729459 64.35160855 103.7265625 64.359375 C102.53646576 64.37591125 101.34636902 64.39244751 100.12020874 64.40948486 C96.3300866 64.45795532 92.54036572 64.47933489 88.75 64.5 C86.17576107 64.52816029 83.60154083 64.55808779 81.02734375 64.58984375 C74.72663531 64.66371437 68.42603969 64.71536261 62.125 64.75 C63.08712402 65.53487793 64.04924805 66.31975586 65.04052734 67.12841797 C68.54031227 69.9834594 69.9141988 71.99005507 70.4609375 76.5546875 C70.59440663 87.04536144 70.59440663 87.04536144 66.125 91.75 C60.80125899 96.27119301 56.57257038 96.2882031 49.9140625 96.140625 C48.94592621 96.13496521 47.97778992 96.12930542 46.98031616 96.12347412 C43.90303071 96.10117112 40.8269306 96.05098556 37.75 96 C35.65756896 95.97992717 33.56511957 95.96167777 31.47265625 95.9453125 C26.35631753 95.90132614 21.2408594 95.83234019 16.125 95.75 C15.83326904 96.36713867 15.54153809 96.98427734 15.2409668 97.62011719 C9.87257591 107.8659807 -3.4710006 113.73168013 -13.73046875 117.9140625 C-30.01327933 122.942232 -49.39328238 120.84512029 -64.375 113.25 C-79.53337952 105.03108996 -90.13354785 92.07477407 -95.875 75.75 C-95.875 74.43 -95.875 73.11 -95.875 71.75 C-96.76369781 71.75888245 -97.65239563 71.76776489 -98.56802368 71.7769165 C-106.95430352 71.85715517 -115.34045393 71.91801153 -123.7270298 71.95724869 C-128.03840166 71.97809934 -132.34945562 72.00637042 -136.66064453 72.05175781 C-140.8233387 72.09530627 -144.98572761 72.11915608 -149.14863205 72.12950897 C-150.7346413 72.13688426 -152.32063436 72.1512867 -153.90651321 72.17292023 C-156.13286329 72.2020753 -158.35796155 72.20595117 -160.58447266 72.20410156 C-162.48309555 72.21742523 -162.48309555 72.21742523 -164.42007446 72.23101807 C-169.64813968 71.50313152 -172.68189121 69.00590399 -176.25 65.25 C-178.64803575 60.08499991 -178.62881535 55.3497712 -177.875 49.75 C-175.56590827 44.77657165 -172.59857301 42.42389163 -167.875 39.75 C-164.42007446 39.26898193 -164.42007446 39.26898193 -160.58447266 39.29589844 C-159.88133942 39.29531433 -159.17820618 39.29473022 -158.45376587 39.29412842 C-156.14834825 39.29689723 -153.84425193 39.3279291 -151.5390625 39.359375 C-149.93338731 39.36684174 -148.32770297 39.37253263 -146.72201538 39.37652588 C-142.50993385 39.39174828 -138.29841006 39.4310001 -134.08654785 39.4753418 C-129.78303572 39.51636825 -125.47943286 39.53455258 -121.17578125 39.5546875 C-112.74193246 39.5974983 -104.30853575 39.66570765 -95.875 39.75 C-95.73328369 38.65598877 -95.59156738 37.56197754 -95.44555664 36.43481445 C-93.35012819 22.90195115 -82.5049309 10.74398369 -71.875 2.75 C-50.24439838 -11.13472496 -22.43110763 -13.38379023 0 0 Z " fill="#FBB540" transform="translate(289.875,32.25)"/>
<path d="M0 0 C0.66 0 1.32 0 2 0 C7.61 18.15 13.22 36.3 19 55 C23.58777344 55.00257813 28.17554688 55.00515625 32.90234375 55.0078125 C35.82366711 55.02277525 38.74477144 55.03949696 41.66601562 55.0625 C46.29416902 55.09877813 50.9217329 55.1288392 55.55004883 55.12011719 C59.28526822 55.11348813 63.0193006 55.136208 66.75427437 55.17855453 C68.17303804 55.18962289 69.59192303 55.19044283 71.0106945 55.18042374 C79.92322127 55.12559631 86.31380423 55.75357183 93 62 C97.58457499 67.36730731 97.72630365 72.59136441 97.51171875 79.546875 C96.7439892 84.72758431 94.82192918 88.42488817 91 92 C84.75076779 96.55407483 79.5220501 96.53273196 71.94140625 96.390625 C70.79711655 96.38496521 69.65282684 96.37930542 68.47386169 96.37347412 C64.83630699 96.35116956 61.1997546 96.30098168 57.5625 96.25 C55.08920698 96.22992746 52.61589845 96.21167802 50.14257812 96.1953125 C44.09471287 96.15132407 38.04742807 96.08447025 32 96 C35.10139439 108.0566129 38.63798534 119.96308244 42.25 131.875 C43.08009429 134.61681202 43.90948051 137.35883214 44.73724365 140.10134888 C45.24772208 141.79227614 45.75959611 143.48278284 46.27301025 145.17282104 C48 150.88801414 48 150.88801414 48 152 C47.20335937 152.02578125 46.40671875 152.0515625 45.5859375 152.078125 C37.06401626 152.50116397 37.06401626 152.50116397 30 157 C26.29863677 161.18838471 25.40593794 164.39485244 25.6796875 169.82421875 C26.36061655 174.44955387 28.0906481 177.20154468 31.5625 180.25 C32.366875 180.8275 33.17125 181.405 34 182 C34.66 182.66 35.32 183.32 36 184 C34.95549683 184.00546844 34.95549683 184.00546844 33.88989258 184.01104736 C27.29928166 184.04905256 20.70913306 184.10604574 14.11886597 184.18390274 C10.73140644 184.22326475 7.34420245 184.25550766 3.95654297 184.27099609 C0.05393834 184.29247832 -3.84768949 184.33916004 -7.75 184.390625 C-9.55827271 184.39246796 -9.55827271 184.39246796 -11.40307617 184.39434814 C-19.48012323 184.53398629 -25.19164968 185.47470275 -31.3125 191.140625 C-31.869375 191.83671875 -32.42625 192.5328125 -33 193.25 C-33.5775 193.95640625 -34.155 194.6628125 -34.75 195.390625 C-35.36875 196.18726563 -35.36875 196.18726563 -36 197 C-36.33 196.01 -36.66 195.02 -37 194 C-35.35 190.7 -33.7 187.4 -32 184 C-39.59 184 -47.18 184 -55 184 C-54.32817149 179.29720045 -53.68272993 175.49691778 -52.32592773 171.06469727 C-51.98565048 169.94406387 -51.64537323 168.82343048 -51.29478455 167.6688385 C-50.92809158 166.48003586 -50.56139862 165.29123322 -50.18359375 164.06640625 C-49.80767593 162.83333237 -49.43175812 161.60025848 -49.04444885 160.32981873 C-48.05112606 157.07176031 -47.05162813 153.81562917 -46.05078125 150.55987549 C-45.02812543 147.22922145 -44.01139156 143.89676105 -42.99414062 140.56445312 C-41.00184802 134.04120045 -39.00301832 127.51996699 -37 121 C-38.18029785 120.9906543 -39.3605957 120.98130859 -40.57666016 120.97167969 C-44.97156998 120.93169352 -49.36578613 120.86591085 -53.76025391 120.79248047 C-55.65925154 120.7643208 -57.5583653 120.74308142 -59.45751953 120.72900391 C-62.19363638 120.70750482 -64.92836452 120.66081992 -67.6640625 120.609375 C-68.93003769 120.60753204 -68.93003769 120.60753204 -70.22158813 120.60565186 C-75.61718188 120.47272235 -78.70191624 119.54941697 -83 116 C-86.62833663 112.18069828 -87.31000458 109.11720994 -87.5 104 C-87.31000458 98.88279006 -86.62833663 95.81930172 -83 92 C-77.42079596 87.04478589 -71.85591166 87.34368672 -64.625 87.25 C-63.50738281 87.22035156 -62.38976562 87.19070312 -61.23828125 87.16015625 C-58.4921161 87.08974176 -55.74678596 87.03690377 -53 87 C-53.32162109 86.40469482 -53.64324219 85.80938965 -53.97460938 85.19604492 C-56.29400488 80.22867289 -55.65952291 74.3170387 -55 69 C-52.20644907 61.93162024 -48.72916409 59.84523663 -42 56 C-29.625 55.505 -29.625 55.505 -17 55 C-11.39 36.85 -5.78 18.7 0 0 Z " fill="#E9E9E7" transform="translate(119,152)"/>
<path d="M0 0 C0.89439285 -0.0071553 1.78878571 -0.01431061 2.71028137 -0.02168274 C3.69419357 -0.02437164 4.67810577 -0.02706055 5.6918335 -0.02983093 C7.24326302 -0.03968773 7.24326302 -0.03968773 8.82603455 -0.04974365 C12.26014269 -0.06950757 15.69420703 -0.08114633 19.12835693 -0.09111023 C20.88509861 -0.09722352 20.88509861 -0.09722352 22.67733002 -0.10346031 C28.87633591 -0.12433452 35.07531957 -0.13863025 41.27435303 -0.147995 C47.68151372 -0.15906055 54.08832722 -0.19345871 60.49536514 -0.23316669 C65.41787365 -0.25929774 70.34029902 -0.26768375 75.26287079 -0.27127647 C77.62477716 -0.27615171 79.9866796 -0.28779219 82.34851837 -0.30631447 C85.6546436 -0.33062975 88.9598652 -0.32975435 92.26605225 -0.32279968 C93.24186752 -0.33560974 94.2176828 -0.3484198 95.22306824 -0.36161804 C100.91790946 -0.31795551 104.23700214 0.30889477 108.73773193 4.14717102 C112.36606857 7.96647274 113.04773652 11.02996108 113.23773193 16.14717102 C113.04773652 21.26438096 112.36606857 24.3278693 108.73773193 28.14717102 C103.13257732 33.14926127 97.61002652 32.74877957 90.33929443 32.75654602 C88.55414932 32.7813504 88.55414932 32.7813504 86.73294067 32.80665588 C82.94281853 32.85512634 79.15309765 32.87650591 75.36273193 32.89717102 C72.78849301 32.92533131 70.21427276 32.95525881 67.64007568 32.98701477 C61.33936725 33.0608854 55.03877162 33.11253363 48.73773193 33.14717102 C49.69985596 33.93204895 50.66197998 34.71692688 51.65325928 35.52558899 C55.1530442 38.38063042 56.52693073 40.38722609 57.07366943 44.95185852 C57.20713857 55.44253246 57.20713857 55.44253246 52.73773193 60.14717102 C48.05538587 63.92041631 44.39512022 64.72845481 38.53265381 64.66474915 C37.73186905 64.67175842 36.93108429 64.6787677 36.10603333 64.68598938 C33.47249142 64.703521 30.84003379 64.6919643 28.20648193 64.67842102 C26.36854853 64.68111734 24.53061652 64.68500092 22.69268799 64.6900177 C18.84607321 64.69590619 14.99983069 64.68737081 11.15325928 64.6686554 C6.23027666 64.64586616 1.30816639 64.65899274 -3.61478424 64.68294525 C-7.40843237 64.69742084 -11.20187474 64.69278918 -14.99552917 64.68243408 C-16.81035974 64.67977166 -18.62520918 64.68301948 -20.4400177 64.69235229 C-22.97957623 64.70254708 -25.51773527 64.68697702 -28.05718994 64.66474915 C-29.17486 64.67689453 -29.17486 64.67689453 -30.31510925 64.68928528 C-35.43328825 64.6065726 -38.30689545 63.34519041 -42.26226807 60.14717102 C-46.56454396 55.37978421 -47.62509309 51.70969807 -47.54351807 45.42842102 C-46.95407418 40.64737616 -44.1140601 37.89755924 -40.63726807 34.83467102 C-36.71804612 32.04996069 -34.31756334 31.97232676 -29.50445557 31.83076477 C-28.84140411 31.80998367 -28.17835266 31.78920258 -27.49520874 31.76779175 C-25.37600112 31.70237871 -23.25666907 31.64344997 -21.13726807 31.58467102 C-19.70105725 31.54147793 -18.26485905 31.49786338 -16.82867432 31.45381165 C-13.30667213 31.34670603 -9.78452982 31.24541527 -6.26226807 31.14717102 C-6.75090332 30.74087463 -7.23953857 30.33457825 -7.74298096 29.91596985 C-8.37969727 29.37996155 -9.01641357 28.84395325 -9.67242432 28.29170227 C-10.30543457 27.76165588 -10.93844482 27.2316095 -11.59063721 26.6855011 C-15.03925462 23.51188662 -15.38995412 20.19129945 -15.63726807 15.70967102 C-15.5239605 11.16226055 -14.26867935 8.64110846 -11.26226807 5.14717102 C-7.41897795 1.76141544 -5.1008309 0.0279674 0 0 Z " fill="#EAE9E7" transform="translate(303.26226806640625,63.85282897949219)"/>
<path d="M0 0 C11.32867367 8.55541436 16.57177986 16.96843286 20.6875 30.6875 C20.6875 44.5475 20.6875 58.4075 20.6875 72.6875 C-10.9925 72.6875 -42.6725 72.6875 -75.3125 72.6875 C-75.3125 20.36394458 -75.3125 20.36394458 -61 4.9375 C-44.70456176 -10.48496833 -18.58433045 -12.3339951 0 0 Z " fill="#019532" transform="translate(339.3125,199.3125)"/>
<path d="M0 0 C1.75404681 2.63107022 2.53444563 4.32186955 3.42041016 7.27197266 C3.68052887 8.12941071 3.94064758 8.98684875 4.20864868 9.87026978 C4.61970352 11.25319717 4.61970352 11.25319717 5.0390625 12.6640625 C5.32478119 13.61187592 5.61049988 14.55968933 5.90487671 15.53622437 C6.50727625 17.537772 7.10728503 19.5400405 7.70507812 21.54296875 C8.62390084 24.62131747 9.5495666 27.69754124 10.4765625 30.7734375 C11.0602939 32.71602626 11.64364056 34.65873069 12.2265625 36.6015625 C12.50464752 37.52756256 12.78273254 38.45356262 13.06924438 39.40762329 C13.32305878 40.25875702 13.57687317 41.10989075 13.83837891 41.98681641 C14.0632901 42.73943756 14.28820129 43.49205872 14.51992798 44.26748657 C15 46 15 46 15 47 C14.20335937 47.02578125 13.40671875 47.0515625 12.5859375 47.078125 C4.06401626 47.50116397 4.06401626 47.50116397 -3 52 C-6.70136323 56.18838471 -7.59406206 59.39485244 -7.3203125 64.82421875 C-6.63938345 69.44955387 -4.9093519 72.20154468 -1.4375 75.25 C-0.633125 75.8275 0.17125 76.405 1 77 C1.66 77.66 2.32 78.32 3 79 C1.95549683 79.00546844 1.95549683 79.00546844 0.88989258 79.01104736 C-5.70071834 79.04905256 -12.29086694 79.10604574 -18.88113403 79.18390274 C-22.26859356 79.22326475 -25.65579755 79.25550766 -29.04345703 79.27099609 C-32.94606166 79.29247832 -36.84768949 79.33916004 -40.75 79.390625 C-42.55827271 79.39246796 -42.55827271 79.39246796 -44.40307617 79.39434814 C-52.48012323 79.53398629 -58.19164968 80.47470275 -64.3125 86.140625 C-65.1478125 87.18476563 -65.1478125 87.18476563 -66 88.25 C-66.5775 88.95640625 -67.155 89.6628125 -67.75 90.390625 C-68.1625 90.92171875 -68.575 91.4528125 -69 92 C-69.33 91.01 -69.66 90.02 -70 89 C-68.35 85.7 -66.7 82.4 -65 79 C-72.59 79 -80.18 79 -88 79 C-87.33017302 74.31121116 -86.68640905 70.50394256 -85.34179688 66.08056641 C-85.00474731 64.96316071 -84.66769775 63.845755 -84.32043457 62.69448853 C-83.95687866 61.50882294 -83.59332275 60.32315735 -83.21875 59.1015625 C-82.84520386 57.87086029 -82.47165771 56.64015808 -82.08679199 55.37216187 C-81.29985569 52.78080389 -80.50943319 50.19054469 -79.71630859 47.60107422 C-78.69838711 44.27709863 -77.68794772 40.95090571 -76.67989349 37.62392616 C-75.71706038 34.44877193 -74.74903833 31.27521003 -73.78125 28.1015625 C-73.41769409 26.90375153 -73.05413818 25.70594055 -72.67956543 24.47183228 C-72.34251587 23.37333954 -72.00546631 22.2748468 -71.65820312 21.14306641 C-71.36143677 20.17156647 -71.06467041 19.20006653 -70.75891113 18.1991272 C-70 16 -70 16 -69 15 C-67.25227028 14.89248653 -65.50026356 14.85374752 -63.74926758 14.84228516 C-62.6275264 14.83202301 -61.50578522 14.82176086 -60.35005188 14.81118774 C-59.12723007 14.80388641 -57.90440826 14.79658508 -56.64453125 14.7890625 C-54.07746766 14.76098658 -51.51041046 14.73232207 -48.94335938 14.703125 C-44.87918554 14.66072677 -40.81504985 14.62397817 -36.75073242 14.59863281 C-32.84011451 14.57358738 -28.92992923 14.52513263 -25.01953125 14.4765625 C-23.8068306 14.47330963 -22.59412994 14.47005676 -21.34468079 14.46670532 C-14.15545758 14.36200218 -8.99652034 14.07975701 -3.75 8.6875 C-1.90443357 5.85323727 -0.90627587 3.24748854 0 0 Z " fill="#029532" transform="translate(152,257)"/>
<path d="M0 0 C0.9724916 0.00092179 1.9449832 0.00184359 2.94694424 0.00279331 C4.05898724 0.00141865 5.17103024 0.00004398 6.31677151 -0.00137234 C7.54747372 0.00222294 8.77817593 0.00581821 10.04617214 0.00952244 C11.33378948 0.00937641 12.62140682 0.00923038 13.94804287 0.00907993 C17.48920685 0.00879197 21.03033724 0.01468847 24.57149339 0.02165389 C28.26840913 0.02788766 31.96532556 0.02849125 35.66224575 0.0296793 C42.66749824 0.03279255 49.6727352 0.04100584 56.67798084 0.05102879 C64.65124801 0.06219013 72.6245159 0.06770043 80.59778893 0.07272422 C97.00368814 0.08318846 113.40957172 0.10078778 129.81545925 0.12304783 C131.07667899 2.63697067 132.3369532 5.15136037 133.59670925 7.66601658 C133.94894558 8.36787083 134.30118191 9.06972507 134.66409206 9.79284763 C143.81545925 28.06922438 143.81545925 28.06922438 143.81545925 32.12304783 C91.01545925 32.12304783 38.21545925 32.12304783 -16.18454075 32.12304783 C-15.32761212 27.83840468 -14.309825 24.88276376 -12.49704075 20.98242283 C-11.96336887 19.83000095 -11.429697 18.67757908 -10.87985325 17.49023533 C-10.32040012 16.29656345 -9.760947 15.10289158 -9.18454075 13.87304783 C-8.61899063 12.6519001 -8.05388194 11.43054783 -7.48922825 10.20898533 C-2.81406175 0.15850663 -2.81406175 0.15850663 0 0 Z " fill="#019531" transform="translate(56.18454074859619,407.8769521713257)"/>
<path d="M0 0 C1.30904297 -0.0038269 2.61808594 -0.00765381 3.96679688 -0.01159668 C6.73066196 -0.01747605 9.49400802 -0.00898041 12.2578125 0.00976562 C15.78862831 0.03255558 19.31822777 0.01942391 22.84899902 -0.00452423 C26.23276177 -0.02250956 29.61620276 -0.00989232 33 0 C34.89395508 -0.01214539 34.89395508 -0.01214539 36.82617188 -0.02453613 C47.68018545 0.09130219 47.68018545 0.09130219 52.5 4.53125 C56.12833663 8.35055172 56.81000458 11.41404006 57 16.53125 C56.81000458 21.64845994 56.12833663 24.71194828 52.5 28.53125 C47.88402208 32.25118514 44.41454928 33.07297148 38.625 32.78125 C37.93664062 32.76320312 37.24828125 32.74515625 36.5390625 32.7265625 C34.8587619 32.67988748 33.17918837 32.60815939 31.5 32.53125 C31.83 33.19125 32.16 33.85125 32.5 34.53125 C33.00502343 40.06167052 33.23807257 44.94155524 30.875 50.03125 C26.12906428 55.02697181 23.33642356 56.74798738 16.40625 57.04882812 C13.93763638 57.07517414 11.46870345 57.07833108 9 57.0625 C7.69095703 57.0663269 6.38191406 57.07015381 5.03320312 57.07409668 C2.26933804 57.07997605 -0.49400802 57.07148041 -3.2578125 57.05273438 C-6.78862831 57.02994442 -10.31822777 57.04307609 -13.84899902 57.06702423 C-17.23276177 57.08500956 -20.61620276 57.07239232 -24 57.0625 C-25.26263672 57.07059692 -26.52527344 57.07869385 -27.82617188 57.08703613 C-38.68018545 56.97119781 -38.68018545 56.97119781 -43.5 52.53125 C-47.12833663 48.71194828 -47.81000458 45.64845994 -48 40.53125 C-47.81000458 35.41404006 -47.12833663 32.35055172 -43.5 28.53125 C-38.88402208 24.81131486 -35.41454928 23.98952852 -29.625 24.28125 C-28.93664062 24.29929688 -28.24828125 24.31734375 -27.5390625 24.3359375 C-25.8587619 24.38261252 -24.17918837 24.45434061 -22.5 24.53125 C-22.83 23.87125 -23.16 23.21125 -23.5 22.53125 C-24.00502343 17.00082948 -24.23807257 12.12094476 -21.875 7.03125 C-15.03612735 -0.16756331 -9.7120481 -0.06228055 0 0 Z " fill="#E9E9E7" transform="translate(423.5,143.46875)"/>
<path d="M0 0 C0.86905975 -0.00540298 1.73811951 -0.01080597 2.6335144 -0.01637268 C5.4943084 -0.0288374 8.35409157 -0.01238402 11.21484375 0.00561523 C13.20971733 0.00546019 15.20459122 0.00397038 17.19946289 0.00120544 C21.37562412 -0.00017754 25.5514415 0.01236284 29.72753906 0.03515625 C35.07413565 0.0635404 40.42016108 0.06080212 45.76679993 0.04806614 C49.88469297 0.04110318 54.00245456 0.04890533 58.12033081 0.06132317 C60.09145605 0.06583166 62.06259543 0.06617974 64.03372192 0.06225777 C66.79100352 0.05933953 69.54750466 0.07588187 72.3046875 0.09765625 C73.52054031 0.09090378 73.52054031 0.09090378 74.76095581 0.08401489 C80.29154451 0.1563917 84.59938156 1.11854 88.796875 5.03686523 C92.98598927 10.51493774 93.77386777 13.68796417 93.15234375 20.50170898 C91.32699784 25.77493051 88.54515172 28.29861984 84.15234375 31.50170898 C80.30251374 32.78498565 76.65822821 32.66557352 72.64526367 32.67871094 C71.34233116 32.68856773 71.34233116 32.68856773 70.01307678 32.69862366 C67.13632115 32.71834679 64.25961768 32.7300166 61.3828125 32.73999023 C60.40012201 32.74406576 59.41743153 32.74814129 58.40496254 32.75234032 C53.2044661 32.77319608 48.00399601 32.78750038 42.8034668 32.796875 C37.43323245 32.80794304 32.06341205 32.84234903 26.69332409 32.8820467 C22.56259898 32.90819405 18.43197284 32.91656513 14.30117226 32.92015648 C12.32164016 32.92502669 10.34211261 32.93665301 8.36266136 32.95519447 C5.59064295 32.9795475 2.8197001 32.97862801 0.04760742 32.97167969 C-1.17531509 32.99089478 -1.17531509 32.99089478 -2.42294312 33.01049805 C-7.70246264 32.96233636 -10.63625139 31.95675098 -14.84765625 28.50170898 C-18.47599288 24.68240726 -19.15766083 21.61891892 -19.34765625 16.50170898 C-19.15766083 11.38449905 -18.47599288 8.3210107 -14.84765625 4.50170898 C-9.81275619 0.37965392 -6.23196308 -0.07433107 0 0 Z " fill="#EAE9E7" transform="translate(130.84765625,71.498291015625)"/>
<path d="M0 0 C0.99 0.33 1.98 0.66 3 1 C5.96616874 1.12059979 8.9105516 1.18543804 11.87768555 1.20532227 C13.23896576 1.22017166 13.23896576 1.22017166 14.62774658 1.23532104 C17.63071067 1.2669362 20.63369058 1.2916936 23.63671875 1.31640625 C25.71751825 1.33697576 27.79831356 1.35797223 29.87910461 1.37937927 C35.35845558 1.43460024 40.83784426 1.48400945 46.31726074 1.53222656 C51.90750489 1.58244137 57.4976942 1.63812755 63.08789062 1.69335938 C74.05854692 1.80094127 85.0292508 1.90238622 96 2 C95.53637634 3.93233518 95.06751776 5.86341489 94.59643555 7.79394531 C94.3358989 8.86944641 94.07536224 9.94494751 93.80693054 11.05303955 C90.89318875 21.69420553 82.22149932 30.50440654 73.125 36.3125 C61.10936038 42.95367431 47.82986765 43.78724866 34.390625 41.34375 C21.41408974 37.44406583 10.93623318 28.27034153 4.2890625 16.62890625 C1.63818096 11.22271451 0 6.02811109 0 0 Z " fill="#029432" transform="translate(264,398)"/>
<path d="M0 0 C6.6 0 13.2 0 20 0 C20 21.12 20 42.24 20 64 C1.19 64 -17.62 64 -37 64 C-37 59.38 -37 54.76 -37 50 C-39.27502106 43.26972936 -43.08889661 38.95901359 -49 35 C-51.38573023 33.98909736 -53.43549038 33.48084555 -56 33 C-56 32.67 -56 32.34 -56 32 C-55.3117514 31.99413376 -54.62350281 31.98826752 -53.91439819 31.98222351 C-46.74393214 31.91823516 -39.57391263 31.83380068 -32.40380859 31.73754883 C-29.72863786 31.70267998 -27.05376362 31.67628119 -24.37841797 31.65356445 C-20.53062212 31.61998733 -16.68346511 31.56766721 -12.8359375 31.51171875 C-11.04499161 31.50213387 -11.04499161 31.50213387 -9.21786499 31.49235535 C-1.17805298 31.39281998 -1.17805298 31.39281998 6 28 C10.44581921 23.07355168 11.35086982 20.0486122 11.28515625 13.54296875 C10.76648774 8.91758242 8.384574 6.17479006 4.9375 3.25 C4.298125 2.8375 3.65875 2.425 3 2 C2.01 1.34 1.02 0.68 0 0 Z " fill="#029532" transform="translate(340,304)"/>
<path d="M0 0 C0.66 0 1.32 0 2 0 C4.21817709 7.15332744 6.43484785 14.30711978 8.64957428 21.46151638 C9.67790825 24.78325136 10.70676863 28.10482141 11.73681641 31.42602539 C12.91984491 35.24056862 14.10061203 39.05580991 15.28125 42.87109375 C15.65310425 44.06899033 16.0249585 45.2668869 16.40808105 46.50108337 C16.74843384 47.6021492 17.08878662 48.70321503 17.43945312 49.83764648 C17.7414563 50.81249496 18.04345947 51.78734344 18.35461426 52.79173279 C19 55 19 55 19 56 C7.12 56 -4.76 56 -17 56 C-15.06250031 49.47085641 -13.12408239 42.94199968 -11.18334961 36.41381836 C-10.52428524 34.19587852 -9.86574864 31.97778178 -9.20776367 29.75952148 C-8.25840898 26.55931222 -7.30711746 23.35968399 -6.35546875 20.16015625 C-5.91934517 18.68773216 -5.91934517 18.68773216 -5.47441101 17.18556213 C-3.75672681 11.41855455 -1.94451473 5.69463846 0 0 Z " fill="#019531" transform="translate(119,152)"/>
<path d="M0 0 C5.28 0 10.56 0 16 0 C16 13.2 16 26.4 16 40 C10.72 40 5.44 40 0 40 C0 26.8 0 13.6 0 0 Z " fill="#5F4623" transform="translate(432,440)"/>
<path d="M0 0 C5.28 0 10.56 0 16 0 C16 13.2 16 26.4 16 40 C10.72 40 5.44 40 0 40 C0 26.8 0 13.6 0 0 Z " fill="#5F4623" transform="translate(304,440)"/>
<path d="M0 0 C5.28 0 10.56 0 16 0 C16 13.2 16 26.4 16 40 C10.72 40 5.44 40 0 40 C0 26.8 0 13.6 0 0 Z " fill="#5F4623" transform="translate(120,440)"/>
<path d="M0 0 C0.5625 1.9375 0.5625 1.9375 1 4 C0.67 4.33 0.34 4.66 0 5 C-0.07271741 7.35313555 -0.08370868 9.70833668 -0.0625 12.0625 C-0.05347656 13.35285156 -0.04445313 14.64320313 -0.03515625 15.97265625 C-0.02355469 16.97167969 -0.01195313 17.97070312 0 19 C-2.64 19 -5.28 19 -8 19 C-6.00386732 12.2813095 -3.2708579 6.19265192 0 0 Z " fill="#099937" transform="translate(81,349)"/>
</svg>
